# xmcd CD database file
#
# Track frame offsets:
#	150
#	16262
#	30865
#	49113
#	63923
#	79313
#	93804
#	105484
#	121236
#	134799
#	155530
#	169621
#	187527
#	203474
#	220896
#	236732
#	249123
#	264162
#	280443
#	293482
#
# Disc length: 4157 seconds
#
# Revision: 0
# Processed by: cddbd v1.5.2PL0 Copyright (c) Steve Scherf et al.
# Submitted via: CDex 1.70beta2
#
DISCID=fd103b14
DTITLE=Various Artist - NU COUNTRY TRAXX 167
DYEAR=2013
DGENRE=Country
TTITLE0=Pirate Flag - Kenny Chesney
TTITLE1=Runnin' Outta Moonlight - Randy Houser
TTITLE2=Better - Maggie Rose
TTITLE3=Downtown - Lady Antebellum
TTITLE4=Pieces - Gary Allan
TTITLE5=Power Of A Love Song - Tate Stevens
TTITLE6=Fill In The Blank - Greg Bates
TTITLE7=Stomping Grounds - JJ Lawhorn
TTITLE8=Love Is Alive - Phil Vassar
TTITLE9=Southern Comfort Zone [Acoustic Version] - Brad Paisley
TTITLE10=Playin With Fire - Katie Armiger
TTITLE11=Ain't Easy - Rachel Farley
TTITLE12=Crash - Chad Brownlee
TTITLE13=Half Broke Horses - Jaida Dreyer
TTITLE14=The Only Drug - JB And The Moonshine Band
TTITLE15=That's Country - Tobacco Rd. Band ft. Colt Ford
TTITLE16=Baby Knows A Lot About Leavin' - Gil Grand
TTITLE17=A Flight Called You - Wayne Warner
TTITLE18=School Bus Driver - Elvis Carden
TTITLE19=Don't Call Me A Hero - Don Murdock
EXTD=YEAR: 2013
EXTT0=
EXTT1=
EXTT2=
EXTT3=
EXTT4=
EXTT5=
EXTT6=
EXTT7=
EXTT8=
EXTT9=
EXTT10=
EXTT11=
EXTT12=
EXTT13=
EXTT14=
EXTT15=
EXTT16=
EXTT17=
EXTT18=
EXTT19=
PLAYORDER=
